<?xml version="1.0" standalone="no"?>
<!DOCTYPE svg PUBLIC "-//W3C//DTD SVG 20010904//EN"
 "http://www.w3.org/TR/2001/REC-SVG-20010904/DTD/svg10.dtd">
<svg version="1.0" xmlns="http://www.w3.org/2000/svg"
 width="750.000000pt" height="750.000000pt" viewBox="0 0 750.000000 750.000000"
 preserveAspectRatio="xMidYMid meet">
<metadata>
Created by potrace 1.11, written by Peter Selinger 2001-2013
</metadata>
<g transform="translate(0.000000,750.000000) scale(0.100000,-0.100000)"
fill="#000000" stroke="none">
<path d="M5674 6590 c-45 -9 -124 -32 -175 -50 -111 -40 -375 -169 -406 -199
-12 -12 -25 -21 -28 -21 -27 0 -167 -167 -205 -245 -14 -27 -29 -53 -35 -57
-5 -4 -7 -8 -3 -8 6 0 -38 -109 -90 -221 -70 -149 -160 -229 -377 -334 -100
-48 -388 -158 -470 -179 -5 -2 -17 -6 -25 -9 -8 -3 -46 -15 -85 -28 -63 -20
-203 -72 -280 -104 -26 -11 -146 -60 -210 -85 -11 -5 -63 -25 -115 -45 -52
-20 -104 -40 -115 -45 -28 -13 -294 -98 -330 -106 -16 -4 -36 -11 -42 -17 -7
-5 -13 -7 -13 -3 0 3 -12 1 -27 -5 -16 -6 -37 -13 -48 -15 -31 -6 -125 -34
-170 -51 -22 -8 -41 -14 -43 -14 -1 1 -18 -6 -38 -14 -20 -8 -40 -15 -45 -15
-12 0 -329 -127 -361 -145 -14 -8 -31 -15 -37 -15 -6 0 -30 -9 -54 -19 -23
-10 -63 -27 -89 -37 -50 -20 -65 -36 -26 -28 46 9 74 13 118 19 69 8 106 13
224 30 60 9 111 13 114 10 3 -3 0 -5 -6 -5 -6 0 -50 -18 -99 -41 -83 -39 -131
-60 -143 -64 -3 -1 -34 -15 -70 -32 -36 -17 -99 -45 -140 -63 -41 -18 -79 -36
-85 -41 -5 -5 -17 -9 -27 -9 -10 0 -18 -4 -18 -10 0 -5 -6 -10 -13 -10 -8 0
-27 -6 -43 -14 -61 -31 -205 -96 -211 -96 -3 0 -20 -7 -39 -15 -56 -25 -96
-41 -159 -65 -33 -12 -69 -26 -80 -31 -25 -11 -323 -109 -350 -115 -11 -3 -36
-7 -55 -9 -19 -2 -44 -6 -55 -9 -11 -2 -35 -5 -52 -5 -18 -1 -33 -4 -33 -8 0
-7 40 -10 185 -13 l50 -1 -84 -40 c-46 -22 -82 -42 -79 -44 2 -2 17 -6 33 -9
17 -2 30 -5 30 -6 0 -1 12 -4 28 -6 46 -8 74 -21 57 -27 -8 -3 -112 -37 -230
-75 -360 -118 -534 -190 -463 -193 18 -1 28 -3 68 -13 11 -3 40 -10 65 -16 25
-6 48 -14 52 -18 4 -4 -11 -27 -33 -52 -93 -105 -86 -176 19 -197 43 -8 183
-9 188 -1 3 4 11 5 18 2 13 -5 139 9 197 22 13 3 37 7 53 9 15 2 36 7 46 10
10 3 28 8 39 10 47 11 58 13 101 25 25 7 52 14 60 16 8 1 47 12 85 24 71 21
198 58 225 64 8 2 35 9 60 16 25 7 52 14 60 15 25 5 114 26 135 32 37 10 270
11 325 2 30 -5 70 -12 88 -14 33 -5 140 -38 177 -55 26 -12 108 -38 137 -44
13 -3 59 -14 103 -25 44 -11 91 -22 105 -25 14 -3 43 -10 65 -15 22 -6 55 -13
74 -16 19 -3 37 -8 41 -10 6 -4 18 -6 85 -20 11 -2 36 -8 55 -12 l34 -9 -51
-33 c-56 -36 -71 -56 -44 -59 9 -1 25 -4 36 -6 11 -2 22 -5 25 -6 3 0 -17 -10
-45 -21 -119 -49 -117 -47 -55 -50 30 -1 80 -4 110 -6 30 -2 67 -4 83 -5 24
-1 41 -18 17 -18 -14 0 -123 -51 -118 -55 2 -2 19 -7 38 -10 35 -7 52 -9 120
-20 53 -8 244 -16 440 -19 l175 -3 -3 -29 c-2 -16 -8 -34 -13 -40 -5 -7 -11
-25 -13 -40 -3 -16 -10 -42 -16 -59 -22 -58 -37 -160 -30 -211 7 -46 60 -190
98 -261 14 -29 63 -63 89 -63 5 0 19 -19 31 -42 12 -24 46 -88 77 -143 30 -55
65 -120 76 -145 12 -24 43 -88 69 -142 27 -54 45 -100 40 -103 -5 -3 -31 0
-58 6 -58 12 -165 16 -202 7 -14 -3 -43 -14 -65 -23 -35 -15 -38 -18 -20 -25
11 -4 24 -5 29 -2 21 12 89 4 98 -12 17 -30 45 -39 164 -50 68 -7 192 -70 205
-105 28 -73 61 -122 129 -191 75 -77 130 -147 130 -167 0 -18 41 -64 66 -73
13 -5 45 -12 71 -15 34 -5 55 -14 72 -33 l24 -26 -8 24 c-15 48 -56 134 -72
152 -9 10 -12 18 -8 18 4 0 1 8 -7 18 -21 25 -60 94 -55 99 19 18 167 -1 252
-33 39 -15 119 -44 179 -65 80 -28 116 -46 132 -66 27 -32 28 -28 13 32 -8 33
-20 50 -48 68 -142 94 -182 116 -233 128 -53 12 -64 20 -35 25 7 1 30 5 52 10
22 4 85 6 140 5 263 -5 295 -3 288 17 -3 6 -13 12 -22 12 -9 0 -21 4 -27 9 -5
5 -42 19 -82 31 -63 18 -98 21 -240 21 -92 0 -176 -2 -187 -4 -114 -24 -181
-25 -223 -3 -29 15 -160 152 -235 246 -85 105 -260 382 -254 401 1 4 -5 15
-14 25 -20 25 -81 144 -73 144 4 0 -1 12 -11 26 -9 14 -15 27 -13 28 5 4 257
29 303 31 46 1 95 -6 245 -35 56 -11 112 -19 165 -24 17 -1 53 3 81 9 28 7 73
10 100 9 l49 -3 -45 22 c-25 11 -47 22 -50 22 -3 1 -18 7 -35 14 -30 13 -83
17 -140 12 -88 -9 -133 9 -121 47 5 14 21 25 47 32 50 14 319 6 348 -10 12 -6
21 -7 21 -3 0 10 -91 93 -104 94 -59 6 -117 -1 -221 -27 -33 -9 -88 -5 -117 7
-33 14 -47 61 -24 84 20 21 92 52 136 60 43 8 46 11 22 24 -46 25 -78 22 -123
-11 -24 -17 -46 -34 -49 -37 -15 -18 -65 -42 -90 -43 -35 -1 -84 33 -106 75
-82 157 -116 237 -99 237 7 0 15 3 17 8 2 4 26 18 53 32 31 15 88 62 150 125
55 56 114 110 130 121 33 23 109 55 140 59 11 1 49 8 85 14 36 6 79 13 95 15
152 23 228 53 430 171 96 56 438 293 443 307 2 4 10 8 18 8 8 0 14 4 14 9 0 5
9 12 19 16 27 8 187 167 196 194 3 11 11 21 16 21 5 0 9 9 9 20 0 11 4 20 9
20 7 0 13 12 19 40 0 3 8 23 18 45 16 39 37 113 49 172 18 86 26 132 31 163
12 86 104 381 135 434 6 10 12 27 15 39 2 11 14 50 28 86 55 150 59 172 61
306 2 162 16 195 126 306 63 63 93 85 180 127 152 74 225 87 524 97 300 10
464 5 508 -15 15 -7 29 -11 32 -8 3 3 -3 26 -12 52 -17 47 -92 133 -159 183
-36 28 -228 128 -280 147 -22 8 -57 22 -79 32 -22 10 -42 18 -45 19 -6 0 -64
22 -95 35 -11 5 -49 19 -85 31 -36 13 -76 29 -90 36 -14 7 -31 13 -37 13 -7 0
-32 9 -55 19 -24 11 -63 27 -87 37 -24 10 -62 35 -83 56 -51 49 -50 49 -214
103 -234 78 -333 89 -500 55z m553 -472 c26 -27 34 -62 21 -99 -9 -26 -53 -57
-78 -54 -8 1 -22 3 -31 3 -24 3 -62 45 -66 73 -6 37 16 76 50 93 40 19 74 14
104 -16z m-2344 -3450 c82 -234 74 -289 -50 -316 l-42 -10 14 28 c10 19 13 46
9 86 -3 33 -6 68 -7 79 -3 45 30 205 43 205 4 0 19 -33 33 -72z"/>
<path d="M6145 6120 c-73 -28 -57 -130 20 -130 51 0 78 44 59 95 -9 23 -55 44
-79 35z m53 -43 c4 -21 -27 -35 -38 -17 -12 19 0 42 19 38 9 -2 17 -11 19 -21z"/>
</g>
</svg>
